<svg xmlns="http://www.w3.org/2000/svg" id="Layer_2" data-name="Layer 2" viewBox="0 0 161.33 27.54"><defs><style>      .cls-1 {        fill: #56bbdd;      }      .cls-1, .cls-2 {        stroke-width: 0px;      }      .cls-2 {        fill: #05607f;      }    </style></defs><g id="Layer_2-2" data-name="Layer 2"><g><path class="cls-1" d="M26.92,19.47c0-.52-.6-.82-1.01-.51-1.97,1.5-4.94,3.1-8.92,4.31-6.35,1.93-11.28,1.64-13.34.49-.38-.21-.9-.55-.98-1.05-.16-1.01,1.45-2.03,1.54-2.27.03-.08.04-.15.04-.23l.08-2.15c0-.58.08-.37-.31.05-.97,1.04-4.39,2.86-3.99,5.36.41,2.63,3.76,4.06,8.45,4.06,2.78,0,5.98-.53,9.26-1.52,3.44-1.05,6.52-2.48,8.9-4.1.17-.12.27-.32.27-.53,0,0,0-1.91,0-1.91Z"></path><path class="cls-2" d="M17.75,20.92c3.63-1.03,6.61-2.42,8.74-3.85.26-.17.41-.47.41-.79l.02-12.99c0-.43-.29-.81-.7-.92L17.51.03c-.61-.16-1.21.3-1.2.93l.22,19.05c0,.62.61,1.08,1.21.91h.01Z"></path><path class="cls-2" d="M8.51,22.89v-11.07c0-.74-.6-1.34-1.34-1.34h-2.93c-.74,0-1.34.6-1.34,1.34v8.86c0,.42.19.82.52,1.07.95.71,2.74,1.16,5.09,1.22v-.09h0Z"></path><path class="cls-2" d="M13.94,6.91h-2.87c-.76,0-1.37.62-1.37,1.37v13.24c0,.8.68,1.43,1.47,1.37.95-.08,1.96-.21,3.01-.41.65-.12,1.13-.69,1.13-1.35v-12.85c0-.76-.62-1.37-1.37-1.37Z"></path></g><g><path class="cls-2" d="M44.21,22.67v-14.6h-4.88v-3.2h13.35v3.2h-4.91v14.6h-3.56Z"></path><path class="cls-2" d="M58.93,22.79c-.38,0-.83-.04-1.32-.11-.5-.07-.97-.24-1.43-.49-.46-.26-.83-.64-1.13-1.17-.3-.52-.44-1.24-.44-2.15v-9.93c0-.79.12-1.44.36-1.97s.56-.95.96-1.25.84-.52,1.32-.65.95-.19,1.42-.19c1.2,0,2.26.02,3.19.05.92.03,1.75.07,2.49.11s1.41.09,2.02.16v2.98h-6.64c-.5,0-.88.12-1.15.36-.27.24-.41.61-.41,1.11v2.57l7.05.19v2.81l-7.05.19v2.45c0,.42.07.74.2.97.14.23.32.39.55.48s.48.13.73.13h6.71v2.98c-.71.08-1.49.14-2.34.19-.86.05-1.72.09-2.6.12s-1.7.05-2.49.05h0Z"></path><path class="cls-2" d="M74.95,22.81c-1.04,0-1.96-.12-2.75-.36s-1.47-.68-2.02-1.32c-.55-.64-.97-1.56-1.25-2.75s-.42-2.74-.42-4.65.15-3.35.44-4.53c.3-1.18.73-2.09,1.29-2.74s1.24-1.1,2.04-1.36c.8-.26,1.71-.38,2.72-.38.8,0,1.55.04,2.25.13s1.33.19,1.89.31c.56.12,1.03.25,1.42.4v2.77c-.29-.06-.68-.13-1.17-.19-.49-.06-1.05-.12-1.67-.16-.63-.04-1.28-.06-1.97-.06s-1.25.08-1.72.23-.85.43-1.13.84-.49,1-.63,1.77-.2,1.77-.2,3.01.06,2.16.18,2.93.32,1.37.59,1.79c.27.42.65.72,1.12.89s1.07.25,1.79.25c1.22,0,2.21-.02,2.97-.07s1.37-.1,1.84-.17v2.74c-.43.14-.93.27-1.49.37s-1.18.18-1.85.24-1.43.08-2.26.08h-.01Z"></path><path class="cls-2" d="M83.05,22.67V4.88h3.56v7.41h6.71v-7.41h3.58v17.79h-3.58v-7.19h-6.71v7.19h-3.56Z"></path><path class="cls-1" d="M99.95,22.67v-13.73c0-.79.12-1.44.36-1.97s.56-.95.96-1.25.84-.52,1.32-.65.95-.19,1.42-.19c.58,0,1.29,0,2.15.01.86,0,1.77.04,2.74.08.97.05,1.9.12,2.8.22v2.98h-6.71c-.5,0-.87.13-1.12.4s-.37.61-.37,1.05v3.03l7.05.19v2.81l-7.05.19v6.83h-3.56.01Z"></path><path class="cls-1" d="M120.85,22.81c-1.22,0-2.28-.12-3.2-.35-.91-.23-1.68-.66-2.3-1.3s-1.08-1.54-1.38-2.73-.46-2.73-.46-4.64.16-3.46.47-4.65c.31-1.19.77-2.11,1.38-2.75s1.37-1.08,2.28-1.32,1.98-.36,3.2-.36,2.28.12,3.2.36c.91.24,1.67.68,2.28,1.32.61.64,1.07,1.56,1.37,2.75.3,1.19.46,2.75.46,4.65s-.15,3.45-.46,4.64c-.3,1.19-.76,2.1-1.37,2.73s-1.37,1.07-2.28,1.3-1.98.35-3.2.35h.01ZM120.85,19.62c.72,0,1.32-.08,1.8-.24s.86-.44,1.14-.85.49-.99.61-1.76c.13-.76.19-1.75.19-2.97,0-1.28-.06-2.31-.19-3.08s-.33-1.36-.61-1.77-.66-.69-1.14-.83-1.08-.22-1.8-.22-1.27.07-1.76.22-.87.42-1.17.83-.51,1-.65,1.77-.2,1.8-.2,3.08.06,2.21.18,2.97c.12.76.32,1.35.61,1.76s.68.69,1.17.85,1.09.24,1.82.24h0Z"></path><path class="cls-1" d="M137.66,22.81c-1.22,0-2.28-.12-3.2-.35-.91-.23-1.68-.66-2.3-1.3s-1.08-1.54-1.38-2.73-.46-2.73-.46-4.64.16-3.46.47-4.65c.31-1.19.77-2.11,1.38-2.75s1.37-1.08,2.28-1.32,1.98-.36,3.2-.36,2.28.12,3.2.36c.91.24,1.67.68,2.28,1.32.61.64,1.07,1.56,1.37,2.75.3,1.19.46,2.75.46,4.65s-.15,3.45-.46,4.64c-.3,1.19-.76,2.1-1.37,2.73s-1.37,1.07-2.28,1.3-1.98.35-3.2.35h.01ZM137.66,19.62c.72,0,1.32-.08,1.8-.24s.86-.44,1.14-.85.49-.99.61-1.76c.13-.76.19-1.75.19-2.97,0-1.28-.06-2.31-.19-3.08s-.33-1.36-.61-1.77-.66-.69-1.14-.83-1.08-.22-1.8-.22-1.27.07-1.76.22-.87.42-1.17.83-.51,1-.65,1.77-.2,1.8-.2,3.08.06,2.21.18,2.97c.12.76.32,1.35.61,1.76s.68.69,1.17.85,1.09.24,1.82.24h0Z"></path><path class="cls-1" d="M147.59,22.67V4.88h7.53c1.2,0,2.2.21,3.01.64.8.42,1.44,1.03,1.91,1.83.47.79.81,1.74,1,2.83.19,1.09.29,2.29.29,3.61,0,2-.23,3.66-.69,4.98-.46,1.31-1.14,2.3-2.06,2.95-.91.65-2.07.97-3.46.97h-7.53v-.02ZM151.15,19.47h3.61c.74,0,1.32-.21,1.76-.64.43-.42.75-1.06.95-1.91s.3-1.9.3-3.15c0-1.15-.06-2.1-.19-2.85s-.32-1.33-.56-1.74c-.25-.42-.56-.71-.94-.87s-.81-.24-1.31-.24h-3.61v11.4h0Z"></path></g></g></svg>